<?xml version="1.0" encoding="UTF-8"?>
<svg width="600" height="400" viewBox="0 0 600 400" fill="none" xmlns="http://www.w3.org/2000/svg">
    <!-- 背景云朵 -->
    <path d="M450 100C450 120 440 140 420 150C420 110 390 80 350 80C350 40 320 10 280 10C230 10 190 50 190 100C160 100 140 120 140 150C140 180 160 200 190 200H420C440 200 460 180 460 150C460 120 440 100 450 100Z" fill="#EDF2F7"/>
    
    <!-- 文件图标 -->
    <rect x="250" y="150" width="100" height="120" rx="10" fill="#4361EE"/>
    <path d="M250 170H350V260H250V170Z" fill="white"/>
    <rect x="270" y="190" width="60" height="8" rx="4" fill="#4361EE" opacity="0.2"/>
    <rect x="270" y="210" width="40" height="8" rx="4" fill="#4361EE" opacity="0.2"/>
    
    <!-- 上传箭头 -->
    <path d="M290 230L300 220L310 230M300 220V250" stroke="#4361EE" stroke-width="4" stroke-linecap="round" stroke-linejoin="round"/>
    
    <!-- 装饰点 -->
    <circle cx="200" y="280" r="5" fill="#4361EE" opacity="0.2"/>
    <circle cx="420" y="120" r="3" fill="#4361EE" opacity="0.2"/>
    <circle cx="350" y="300" r="4" fill="#4361EE" opacity="0.2"/>
    
    <!-- 小装饰线 -->
    <line x1="180" y1="240" x2="200" y2="240" stroke="#4361EE" stroke-width="2" stroke-linecap="round" opacity="0.2"/>
    <line x1="370" y1="180" x2="390" y2="180" stroke="#4361EE" stroke-width="2" stroke-linecap="round" opacity="0.2"/>
    <line x1="220" y1="320" x2="240" y2="320" stroke="#4361EE" stroke-width="2" stroke-linecap="round" opacity="0.2"/>
</svg> 